# xmcd
#
# Track frame offsets: 
#        150
#        14322
#        57915
#        117621
#        138745
#        162978
#        209859
#
# Disc length: 3394 seconds
#
# Revision: 3
# Processed by: cddbd v1.5.2PL0 Copyright (c) Steve Scherf et al.
# Submitted via: ExactAudioCopy v1.1
#
DISCID=6d0d4007
DTITLE=Bernard Allison - Energized - Live in Europe [disk 1]
DYEAR=2006
DGENRE=Modern Electric Blues
TTITLE0=Another Ride To The City
TTITLE1=It's A Man Down There
TTITLE2=Bad Love
TTITLE3=A Woman Named Trouble
TTITLE4=Into My Life
TTITLE5=Too Many Women
TTITLE6=The Way Love Was Meant To Be
EXTD=
EXTT0=
EXTT1=
EXTT2=
EXTT3=
EXTT4=
EXTT5=
EXTT6=
PLAYORDER=
